# xmcd
#
# Track frame offsets:
#	150
#	49349
#	131495
#	172686
#	194699
#	227881
#	269470
#
# Disc length: 3904 seconds
#
# Revision: 1
# Processed by: cddbd v1.5.2PL0 Copyright (c) Steve Scherf et al.
# Submitted via: audiograbber 1.83.01
#
DISCID=610f3e07
DTITLE=Grateful Dead - 74-09-21 Palais des Sports, Paris, France
DYEAR=1900
DGENRE=
TTITLE0=Phil and Ned - Seastones
TTITLE1=Playing In The Band
TTITLE2=Row Jimmy
TTITLE3=Big River
TTITLE4=Ship Of Fools
TTITLE5=Uncle John's Band
TTITLE6=Around and Around
EXTD=
EXTT0=
EXTT1=
EXTT2=
EXTT3=
EXTT4=
EXTT5=
EXTT6=
PLAYORDER=
